<svg width="60" height="60" viewBox="0 0 60 60" fill="none" xmlns="http://www.w3.org/2000/svg">
<path fill-rule="evenodd" clip-rule="evenodd" d="M60 30C60 46.5685 46.5685 60 30 60C13.4315 60 0 46.5685 0 30C0 13.4315 13.4315 0 30 0C46.5685 0 60 13.4315 60 30ZM14.4918 47.8587C15.2728 48.6398 16.5392 48.6398 17.3202 47.8587L30.1621 35.0168L42.5153 47.37C43.2963 48.1511 44.5626 48.1511 45.3437 47.37L47.465 45.2487C48.2461 44.4676 48.2461 43.2013 47.465 42.4203L35.1119 30.0671L47.6493 17.5296C48.4304 16.7486 48.4304 15.4823 47.6493 14.7012L45.528 12.5799C44.7469 11.7989 43.4806 11.7989 42.6996 12.5799L30.1621 25.1174L17.1359 12.0912C16.3549 11.3101 15.0886 11.3101 14.3075 12.0912L12.1862 14.2125C11.4051 14.9935 11.4051 16.2599 12.1862 17.0409L25.2124 30.0671L12.3705 42.909C11.5894 43.69 11.5894 44.9564 12.3705 45.7374L14.4918 47.8587Z" fill="#323232"/>
</svg>
