<svg width="58" height="58" viewBox="0 0 58 58" fill="none" xmlns="http://www.w3.org/2000/svg">
<path d="M50.0877 16.4258C51.2868 16.4258 52.1182 15.2136 51.6685 14.1019C50.0721 10.1551 46.1999 7.36328 41.6874 7.36328H39.6015C38.8236 3.25423 35.2209 0 30.8124 0H27.1874C22.7818 0 19.1768 3.25208 18.3984 7.36328H16.3124C11.8 7.36328 7.92782 10.1551 6.33134 14.1019C5.88173 15.2136 6.7131 16.4258 7.91218 16.4258H50.0877ZM27.1874 3.39844H30.8124C33.2933 3.39844 35.3992 5.06752 36.1081 7.36328H21.8918C22.6007 5.06752 24.7066 3.39844 27.1874 3.39844Z" fill="white" fill-opacity="0.9"/>
<path d="M12.5801 53.2644C12.7692 55.9199 15.0028 58 17.6649 58H40.3348C42.9969 58 45.2305 55.9199 45.4196 53.2644L47.8011 19.8242H10.1987L12.5801 53.2644ZM33.6466 28.9152C33.6935 27.9779 34.4927 27.255 35.4285 27.3029C36.3658 27.3498 37.0876 28.1477 37.0407 29.0848L36.1345 47.2098C36.089 48.1182 35.3382 48.8242 34.4388 48.8242C33.4604 48.8242 32.692 48.006 32.7402 47.0402L33.6466 28.9152ZM22.5713 27.3029C23.5074 27.2559 24.3064 27.978 24.3532 28.9152L25.2595 47.0402C25.3077 48.0064 24.5388 48.8242 23.5609 48.8242C22.6615 48.8242 21.9107 48.1182 21.8652 47.2098L20.959 29.0848C20.9122 28.1477 21.634 27.3498 22.5713 27.3029Z" fill="white" fill-opacity="0.9"/>
</svg>
