<svg width="52" height="52" viewBox="0 0 52 52" fill="none" xmlns="http://www.w3.org/2000/svg">
<path d="M42.7137 26C41.688 26 40.8565 26.8315 40.8565 27.8572V46.4283C40.8565 47.454 40.0251 48.2854 38.9994 48.2854H5.57135C4.54566 48.2854 3.7142 47.454 3.7142 46.4283V9.28595C3.7142 8.26026 4.54566 7.4288 5.57135 7.4288H27.8568C28.8825 7.4288 29.7139 6.59734 29.7139 5.57164C29.7139 4.54595 28.8825 3.7146 27.8568 3.7146H5.57135C2.49438 3.7146 0 6.20898 0 9.28595V46.4283C0 49.5053 2.49438 51.9996 5.57135 51.9996H38.9995C42.0765 51.9996 44.5708 49.5053 44.5708 46.4283V27.8571C44.5708 26.8315 43.7394 26 42.7137 26Z" fill="white" fill-opacity="0.9"/>
<path d="M49.9182 2.08303C48.5847 0.749386 46.7761 0.000300032 44.8902 0.000517663C43.0033 -0.00492311 41.1928 0.745469 39.8631 2.08423L15.401 26.5442C15.1981 26.7487 15.045 26.9972 14.9534 27.2703L11.2392 38.4131C10.9151 39.3862 11.4412 40.4378 12.4143 40.7618C12.6031 40.8247 12.8009 40.8568 12.9998 40.8571C13.1991 40.8567 13.3973 40.8247 13.5866 40.7624L24.7293 37.0482C25.003 36.9568 25.2516 36.8029 25.4555 36.5988L49.9174 12.1368C52.6938 9.36072 52.6942 4.85946 49.9182 2.08303Z" fill="white" fill-opacity="0.9"/>
</svg>
