<svg width="60" height="60" viewBox="0 0 60 60" fill="none" xmlns="http://www.w3.org/2000/svg">
<path d="M30 0.000976562C13.4332 0.000976562 0 13.4315 0 29.9997C0 46.5678 13.4319 59.9983 30 59.9983C46.5694 59.9983 60 46.5678 60 29.9997C60 13.4315 46.5694 0.000976562 30 0.000976562ZM30 8.97093C35.4819 8.97093 39.924 13.4144 39.924 18.8936C39.924 24.3742 35.4819 28.8163 30 28.8163C24.5208 28.8163 20.0786 24.3742 20.0786 18.8936C20.0786 13.4144 24.5208 8.97093 30 8.97093ZM29.9934 52.1551C24.526 52.1551 19.5186 50.1639 15.6562 46.8682C14.7154 46.0657 14.1724 44.889 14.1724 43.6542C14.1724 38.0972 18.6699 33.6498 24.2282 33.6498H35.7744C41.334 33.6498 45.8144 38.0972 45.8144 43.6542C45.8144 44.8903 45.2741 46.0644 44.3319 46.8669C40.4709 50.1639 35.4621 52.1551 29.9934 52.1551Z" fill="#323232"/>
</svg>
