<svg width="54" height="54" viewBox="0 0 54 54" fill="none" xmlns="http://www.w3.org/2000/svg">
<g clip-path="url(#clip0)">
<path d="M52.5767 45.6794L42.9375 36.0629C42.8889 36.0143 42.8316 35.9787 42.7809 35.9441C41.9147 37.2758 40.8789 38.5415 39.7104 39.7101C38.5429 40.8787 37.2749 41.9145 35.9292 42.7828C35.9767 42.8325 36.0124 42.8908 36.061 42.9383L45.6807 52.5764C47.5848 54.4773 50.6769 54.4751 52.5745 52.5764C54.4743 50.6756 54.4753 47.5824 52.5767 45.6794Z" fill="white"/>
<path d="M38.3365 6.56548C29.5797 -2.18918 15.3343 -2.18918 6.57636 6.56764C-2.19017 15.3223 -2.19125 29.5786 6.56988 38.3365C15.331 47.09 29.5797 47.09 38.3365 38.3354C47.0934 29.5786 47.0923 15.3212 38.3365 6.56548ZM10.6977 34.2129C4.21435 27.7296 4.21651 17.1745 10.6999 10.6976C17.1833 4.21535 27.7318 4.21535 34.213 10.6944C40.6921 17.1745 40.6899 27.7177 34.213 34.2108C27.7307 40.6736 17.1833 40.6974 10.6977 34.2129Z" fill="white"/>
<path d="M15.3149 24.2616C14.8386 22.3046 12.8773 19.5894 11.227 20.4545C9.91913 21.1219 10.2874 24.1827 10.9041 25.9928C13.6603 34.2237 23.684 35.9636 24.7262 34.9224C25.7512 33.8986 17.2028 32.0064 15.3149 24.2616Z" fill="white"/>
</g>
<defs>
<clipPath id="clip0">
<rect width="54" height="54" fill="white"/>
</clipPath>
</defs>
</svg>
